<mxfile host="65bd71144e">
    <diagram id="Mu6re7YpMYpKqBReNFt4" name="第 1 页">
        <mxGraphModel dx="651" dy="818" grid="1" gridSize="10" guides="1" tooltips="1" connect="1" arrows="1" fold="1" page="1" pageScale="1" pageWidth="827" pageHeight="1169" math="0" shadow="0">
            <root>
                <mxCell id="0"/>
                <mxCell id="1" parent="0"/>
                <mxCell id="6" value="" style="edgeStyle=none;html=1;" edge="1" parent="1" source="2" target="3">
                    <mxGeometry relative="1" as="geometry"/>
                </mxCell>
                <mxCell id="2" value="" style="rounded=1;whiteSpace=wrap;html=1;" vertex="1" parent="1">
                    <mxGeometry x="10" y="245" width="200" height="180" as="geometry"/>
                </mxCell>
                <mxCell id="7" value="" style="edgeStyle=none;html=1;" edge="1" parent="1" source="3" target="4">
                    <mxGeometry relative="1" as="geometry"/>
                </mxCell>
                <mxCell id="3" value="" style="rounded=1;whiteSpace=wrap;html=1;" vertex="1" parent="1">
                    <mxGeometry x="240" y="245" width="210" height="180" as="geometry"/>
                </mxCell>
                <mxCell id="4" value="" style="rounded=1;whiteSpace=wrap;html=1;" vertex="1" parent="1">
                    <mxGeometry x="480" y="250" width="210" height="180" as="geometry"/>
                </mxCell>
                <mxCell id="9" value="&lt;h1&gt;Data&lt;/h1&gt;&lt;div style=&quot;font-size: 14px&quot;&gt;&lt;ul&gt;&lt;li&gt;Structuralization&lt;/li&gt;&lt;li&gt;Biological information&lt;/li&gt;&lt;li&gt;&lt;i&gt;&lt;b&gt;Keep all raw data&lt;/b&gt;&lt;/i&gt;&lt;/li&gt;&lt;/ul&gt;&lt;/div&gt;" style="text;html=1;strokeColor=none;fillColor=none;spacing=5;spacingTop=-20;whiteSpace=wrap;overflow=hidden;rounded=0;" vertex="1" parent="1">
                    <mxGeometry x="15" y="260" width="190" height="160" as="geometry"/>
                </mxCell>
                <mxCell id="10" value="&lt;h1&gt;Model&lt;/h1&gt;&lt;p&gt;&lt;/p&gt;&lt;ul style=&quot;font-size: 14px&quot;&gt;&lt;li&gt;Biological problem&lt;/li&gt;&lt;li&gt;Model rationality&lt;/li&gt;&lt;li&gt;optimization&lt;/li&gt;&lt;/ul&gt;&lt;p&gt;&lt;/p&gt;" style="text;html=1;strokeColor=none;fillColor=none;spacing=5;spacingTop=-20;whiteSpace=wrap;overflow=hidden;rounded=0;" vertex="1" parent="1">
                    <mxGeometry x="250" y="260" width="190" height="150" as="geometry"/>
                </mxCell>
                <mxCell id="11" value="&lt;h1&gt;Interpretation&lt;/h1&gt;&lt;p&gt;&lt;/p&gt;&lt;ul style=&quot;font-size: 14px&quot;&gt;&lt;li&gt;Visulization&lt;/li&gt;&lt;li&gt;Summary and report&lt;/li&gt;&lt;li&gt;Discussion&lt;/li&gt;&lt;/ul&gt;&lt;p&gt;&lt;/p&gt;" style="text;html=1;strokeColor=none;fillColor=none;spacing=5;spacingTop=-20;whiteSpace=wrap;overflow=hidden;rounded=0;" vertex="1" parent="1">
                    <mxGeometry x="490" y="260" width="190" height="160" as="geometry"/>
                </mxCell>
            </root>
        </mxGraphModel>
    </diagram>
</mxfile>